
      <svg data-logo="logo" xmlns="http://www.w3.org/2000/svg" viewBox="0 0 138 43">
        <g id="logogram" transform="translate(0, 1) rotate(0) "><path fill-rule="evenodd" clip-rule="evenodd" d="M0.763611 21.0353L0.765541 20.8349L0.769521 20.6344L0.775561 20.4339L0.783651 20.2334L0.793811 20.0329L0.806021 19.8324L0.820301 19.632L0.836631 19.4316L0.855031 19.2313L0.875491 19.031L0.898011 18.831L0.922581 18.631L0.949221 18.4312L0.977921 18.2316L1.00867 18.0322L1.04148 17.8331L1.07635 17.6341L1.11326 17.4355L1.15223 17.2371L1.19325 17.039L1.23632 16.8412L1.28142 16.6438L1.32858 16.4468L1.37776 16.2501L1.42899 16.0539L1.48224 15.858L1.53753 15.6626L1.59484 15.4677L1.65417 15.2733L1.71551 15.0794L1.77887 14.886L1.84424 14.6931L1.91161 14.5008L1.98097 14.3091L2.05233 14.118L2.12567 13.9275L2.201 13.7377L2.2783 13.5485L2.35757 13.3601L2.4388 13.1723L2.52199 12.9852L2.60713 12.7989L2.69421 12.6134L2.78323 12.4286L2.87418 12.2446L2.96705 12.0615L3.06183 11.8792L3.15852 11.6977L3.2571 11.5172L3.35757 11.3375L3.45993 11.1587L3.56415 10.9809L3.67024 10.804L3.77818 10.6281L3.88797 10.4532L3.99959 10.2793L4.11304 10.1065L4.22831 9.93461L4.34538 9.76391L4.46425 9.59421L4.5849 9.42561L4.70732 9.25821L4.83151 9.09181L4.95745 8.92671L5.08514 8.76271L5.21455 8.59985L5.34568 8.43825L5.47852 8.27787L5.61305 8.11873L5.74927 7.96084L5.88716 7.80423L6.0267 7.64892L6.16789 7.49491L6.31072 7.34223L6.45516 7.19089L6.60121 7.04091L6.74885 6.8923L6.89807 6.74508L7.04886 6.59927L7.2012 6.45488L7.35508 6.31194L7.51048 6.17044L7.66739 6.03042L7.8258 5.89188L7.98569 5.75483L8.14704 5.61931L8.30984 5.48532L8.47408 5.35287L8.63974 5.22198L8.80681 5.09266L8.97521 4.96494L9.14511 4.83881L9.31631 4.71431L9.48881 4.59144L9.66261 4.47021L9.83781 4.35064L10.0142 4.23273L10.1919 4.11652L10.3709 4.002L10.5512 3.8892L10.7326 3.77812L10.9153 3.66877L11.0991 3.56118L11.2841 3.45535L11.4703 3.35129L11.6576 3.24902L11.846 3.14854L12.0355 3.04988L12.2261 2.95303L12.4178 2.85802L12.6105 2.76485L12.8043 2.67353L12.999 2.58408L13.1948 2.49651L13.3915 2.41082L13.5892 2.32703L13.7878 2.24515L13.9873 2.16518L14.1877 2.08713L14.389 2.01103L14.5911 1.93686L14.7941 1.86466L14.9979 1.79441L15.2025 1.72613L15.4078 1.65984L15.6139 1.59553L15.8208 1.53322L16.0284 1.47292L16.2366 1.41463L16.4456 1.35835L16.6552 1.3041L16.8654 1.25189L17.0762 1.20173L17.2877 1.1536L17.4997 1.10754L17.7122 1.06353L17.9253 1.02159L18.1389 0.981726L18.353 0.943936L18.5676 0.908236L18.7826 0.874626L18.998 0.843106L19.2138 0.813696L19.43 0.786386L19.6466 0.761186L19.8635 0.738086L20.0807 0.717126L20.2982 0.698276L20.516 0.681546L20.734 0.666956L21.9064 0.600006L21.9733 6.24868L22.0116 6.24824L22.1735 6.24801L22.3354 6.24937L22.4973 6.25232L22.6594 6.25687L22.8214 6.26301L22.9835 6.27073L23.1456 6.28006L23.3077 6.29099L23.4697 6.3035L23.6318 6.31762L23.7937 6.33334L23.9556 6.35066L24.1173 6.36957L24.279 6.39008L24.4405 6.41219L24.6019 6.43589L24.7631 6.4612L24.9242 6.4881L25.085 6.51659L25.2457 6.54668L25.4061 6.57836L25.5662 6.61164L25.7262 6.6465L25.8858 6.68295L26.0451 6.72098L26.2042 6.7606L26.3629 6.80181L26.5212 6.84459L26.6792 6.88895L26.8369 6.93488L26.9941 6.98238L27.1509 7.03145L27.3073 7.08209L27.4633 7.13429L27.6188 7.18804L27.7738 7.24335L27.9284 7.3002L28.0824 7.35861L28.2359 7.41855L28.3889 7.48004L28.5413 7.54306L28.6931 7.6076L28.8444 7.67367L28.9951 7.74126L29.1451 7.81036L29.2945 7.88096L29.4433 7.95307L29.5914 8.02668L29.7388 8.10178L29.8855 8.17836L30.0315 8.25642L30.1768 8.33596L30.3213 8.41696L30.4651 8.49942L30.6081 8.58333L30.7503 8.66871L30.8917 8.75551L31.0323 8.84371L31.172 8.93341L31.3109 9.02441L31.4489 9.11691L31.5861 9.21081L31.7223 9.30601L31.8577 9.40271L31.9921 9.50071L32.1255 9.60011L32.2581 9.70091L32.3896 9.80301L32.5202 9.90651L32.6497 10.0112L32.7783 10.1173L32.9058 10.2248L33.0323 10.3335L33.1578 10.4435L33.2822 10.5548L33.4054 10.6674L33.5276 10.7813L33.6487 10.8964L33.7687 11.0127L33.8875 11.1303L34.0052 11.2491L34.1217 11.3692L34.2371 11.4904L34.3512 11.6128L34.4642 11.7364L34.5759 11.8612L34.6864 11.9871L34.7957 12.1142L34.9037 12.2424L35.0105 12.3717L35.116 12.5022L35.2202 12.6337L35.3231 12.7663L35.4247 12.9L35.525 13.0348L35.6239 13.1706L35.7215 13.3075L35.8177 13.4454L35.9126 13.5842L36.0061 13.7241L36.0982 13.865L36.1889 14.0069L36.2781 14.1497L36.366 14.2934L36.4524 14.4381L36.5374 14.5837L36.6209 14.7302L36.703 14.8776L36.7836 15.0259L36.8627 15.175L36.9403 15.325L37.0164 15.4758L37.091 15.6274L37.1641 15.7799L37.2357 15.9331L37.3057 16.0871L37.3742 16.2419L37.4411 16.3974L37.5064 16.5537L37.5702 16.7106L37.6324 16.8683L37.693 17.0266L37.752 17.1857L37.8094 17.3453L37.8652 17.5057L37.9194 17.6666L37.972 17.8282L38.0229 17.9903L38.0722 18.153L38.1198 18.3163L38.1658 18.4801L38.2101 18.6445L38.2528 18.8094L38.2937 18.9747L38.3331 19.1406L38.3707 19.3069L38.4066 19.4737L38.4409 19.6408L38.4734 19.8085L38.5042 19.9765L38.5334 20.1449L38.5608 20.3136L38.5865 20.4827L38.6105 20.6522L38.6327 20.8219L38.6532 20.992L38.672 21.1623L38.689 21.3329L38.7043 21.5037L38.7179 21.6748L38.7297 21.8461L38.7397 22.0176L38.748 22.1892L38.7546 22.3611L38.7593 22.533L38.7624 22.7051L38.7636 22.8773L38.7631 23.0496L38.7608 23.222L38.7567 23.3945L38.7509 23.5669L38.7433 23.7394L38.734 23.9119L38.7228 24.0844L38.7099 24.2569L38.6952 24.4293L38.6787 24.6017L38.6605 24.774L38.6404 24.9461L38.6186 25.1182L38.5951 25.2901L38.5697 25.4619L38.5426 25.6335L38.5137 25.8049L38.483 25.9761L38.4506 26.1471L38.4164 26.3179L38.3804 26.4884L38.3426 26.6586L38.3031 26.8286L38.2619 26.9982L38.2188 27.1675L38.174 27.3364L38.1275 27.505L38.0792 27.6732L38.0292 27.841L37.9774 28.0085L37.9238 28.1754L37.8686 28.342L37.8116 28.508L37.7528 28.6736L37.6924 28.8387L37.6302 29.0032L37.5663 29.1672L37.5007 29.3307L37.4334 29.4936L37.3644 29.6559L37.2937 29.8177L37.2213 29.9787L37.1472 30.1392L37.0714 30.299L36.994 30.4581L36.9148 30.6166L36.8341 30.7743L36.7516 30.9314L36.6676 31.0876L36.5818 31.2432L36.4945 31.3979L36.4055 31.5519L36.3149 31.7051L36.2227 31.8574L36.1289 32.009L36.0334 32.1596L35.9364 32.3094L35.8379 32.4583L35.7377 32.6063L35.636 32.7534L35.5327 32.8996L35.4279 33.0448L35.3215 33.1891L35.2136 33.3324L35.1042 33.4747L34.9933 33.6159L34.8809 33.7562L34.767 33.8954L34.6516 34.0335L34.5347 34.1706L34.4164 34.3066L34.2966 34.4415L34.1754 34.5753L34.0528 34.708L33.9288 34.8395L33.8033 34.9699L33.6765 35.099L33.5482 35.227L33.4186 35.3538L33.2877 35.4794L33.1554 35.6038L33.0218 35.7269L32.8868 35.8488L32.7505 35.9693L32.613 36.0886L32.4741 36.2067L32.334 36.3234L32.1926 36.4387L32.05 36.5528L31.9061 36.6655L31.761 36.7768L31.6147 36.8867L31.4672 36.9953L31.3186 37.1025L31.1687 37.2082L31.0177 37.3126L30.8656 37.4155L30.7124 37.5169L30.558 37.6169L30.4026 37.7155L30.2461 37.8125L30.0885 37.9081L29.9298 38.0021L29.7701 38.0947L29.6095 38.1857L29.4477 38.2751L29.2851 38.3631L29.1214 38.4494L28.9568 38.5342L28.7912 38.6175L28.6247 38.6991L28.4573 38.7791L28.289 38.8576L28.1198 38.9344L27.9498 39.0096L27.7789 39.0831L27.6072 39.155L27.4347 39.2253L27.2614 39.2939L27.0873 39.3608L26.9124 39.4261L26.7368 39.4896L26.5604 39.5515L26.3834 39.6116L26.2057 39.6701L26.0272 39.7268L25.8481 39.7818L25.6684 39.8351L25.4881 39.8866L25.3071 39.9364L25.1256 39.9845L24.9434 40.0307L24.7608 40.0752L24.5776 40.118L24.3938 40.1589L24.2096 40.1981L24.0249 40.2355L23.8397 40.2711L23.6541 40.3049L23.4681 40.3368L23.2816 40.367L23.0948 40.3954L22.9075 40.4219L22.72 40.4466L22.5321 40.4695L22.3438 40.4905L22.1553 40.5097L21.9665 40.5271L21.7775 40.5426L21.5882 40.5563L21.3987 40.5681L21.2089 40.5781L21.019 40.5862L20.829 40.5924L20.6387 40.5968L20.4484 40.5993L20.2579 40.6L20.0674 40.5988L19.8768 40.5957L19.6861 40.5908L19.4954 40.5839L19.3047 40.5752L19.114 40.5647L18.9234 40.5522L18.7327 40.5379L18.5422 40.5217L18.3517 40.5036L18.1613 40.4837L17.9711 40.4619L17.781 40.4382L17.591 40.4126L17.4013 40.3851L17.2117 40.3558L17.0224 40.3246L16.8333 40.2916L16.6444 40.2566L16.4559 40.2198L16.2676 40.1812L16.0797 40.1406L15.892 40.0982L15.7048 40.054L15.5179 40.0079L15.3314 39.9599L15.1453 39.9101L14.9597 39.8585L14.7745 39.805L14.5897 39.7497L14.4055 39.6925L14.2218 39.6335L14.0386 39.5727L13.8559 39.51L13.6738 39.4455L13.4923 39.3793L13.3114 39.3112L13.1311 39.2413L12.9515 39.1696L12.7725 39.0961L12.5942 39.0208L12.4166 38.9438L12.2397 38.865L12.0635 38.7844L11.8881 38.702L11.7135 38.6179L11.5397 38.532L11.3666 38.4444L11.1944 38.3551L11.0231 38.264L10.8525 38.1713L10.6829 38.0768L10.5142 37.9806L10.3464 37.8827L10.1795 37.7831L10.0136 37.6819L9.84861 37.5789L9.68461 37.4744L9.52171 37.3681L9.35971 37.2603L9.19881 37.1507L9.03901 37.0396L8.88021 36.9269L8.72252 36.8125L8.56594 36.6966L8.41048 36.579L8.25617 36.4599L8.10301 36.3393L7.95102 36.217L7.80023 36.0933L7.65064 35.968L7.50227 35.8412L7.35514 35.7129L7.20927 35.583L7.06467 35.4517L6.92136 35.319L6.77934 35.1847L6.63865 35.0491L6.49929 34.9119L6.36127 34.7734L6.22462 34.6335L6.08935 34.4921L5.95547 34.3494L5.823 34.2053L5.69196 34.0598L5.56235 33.913L5.43419 33.7649L5.3075 33.6154L5.18229 33.4647L5.05858 33.3126L4.93637 33.1593L4.81569 33.0047L4.69654 32.8489L4.57894 32.6918L4.4629 32.5335L4.34844 32.374L4.23556 32.2133L4.12429 32.0515L4.01463 31.8885L3.9066 31.7243L3.80021 31.5591L3.69546 31.3927L3.59238 31.2252L3.49098 31.0567L3.39126 30.887L3.29325 30.7164L3.19694 30.5447L3.10235 30.372L3.0095 30.1982L2.91838 30.0235L2.82903 29.8479L2.74143 29.6713L2.65562 29.4938L2.57159 29.3153L2.48935 29.136L2.40892 28.9557L2.3303 28.7747L2.25351 28.5927L2.17856 28.41L2.10544 28.2264L2.03418 28.042L1.96479 27.8569L1.89726 27.671L1.83161 27.4844L1.76784 27.2971L1.70597 27.109L1.64601 26.9203L1.58795 26.7309L1.53182 26.5409L1.47761 26.3502L1.42533 26.1589L1.37499 25.9671L1.3266 25.7747L1.28016 25.5817L1.23569 25.3882L1.19318 25.1941L1.15264 24.9996L1.11408 24.8046L1.0775 24.6092L1.04291 24.4133L1.01032 24.217L0.979721 24.0203L0.951131 23.8232L0.924551 23.6257L0.899991 23.4279L0.877441 23.2298L0.856911 23.0314L0.838411 22.8328L0.821941 22.6338L0.807501 22.4346L0.795101 22.2352L0.784741 22.0356L0.776421 21.8358L0.770141 21.6359L0.765911 21.4358L0.763741 21.2356L0.763611 21.0353ZM20.1417 6.367L20.0961 2.5168L20.0528 2.52098L19.854 2.54214L19.6557 2.56522L19.4575 2.59026L19.2601 2.61716L19.0629 2.64602L18.8659 2.67681L18.6695 2.70949L18.4733 2.74412L18.2781 2.78055L18.0826 2.81902L17.8885 2.85922L17.6941 2.90145L17.5007 2.94547L17.3075 2.99145L17.1152 3.03919L16.9234 3.08885L16.7321 3.14036L16.5414 3.19373L16.3516 3.24889L16.1621 3.30595L15.9736 3.36478L15.7856 3.42548L15.5986 3.48786L15.4119 3.55221L15.2262 3.61828L15.0414 3.6861L14.8571 3.75577L14.6738 3.82714L14.4915 3.90023L14.3097 3.9752L14.1288 4.05187L13.9488 4.13029L13.7698 4.21036L13.5917 4.29217L13.4146 4.37563L13.2381 4.46093L13.0629 4.54779L12.8886 4.63634L12.7153 4.72656L12.543 4.81845L12.3719 4.91191L12.2015 5.0071L12.0322 5.10394L11.8644 5.20216L11.6971 5.3023L11.5314 5.40377L11.3668 5.50682L11.203 5.61156L11.0405 5.71783L10.8792 5.82565L10.7194 5.93474L10.5602 6.04576L10.4026 6.15797L10.2462 6.27173L10.0909 6.38705L9.93701 6.50374L9.78451 6.62183L9.63291 6.74158L9.48301 6.86247L9.33421 6.98495L9.18681 7.10876L9.04071 7.23401L8.89611 7.36046L8.75259 7.48851L8.61071 7.6177L8.47004 7.74838L8.331 7.88016L8.19323 8.01337L8.05699 8.14778L7.92214 8.28352L7.7886 8.42066L7.65681 8.55874L7.5265 8.69801L7.39735 8.83891L7.26999 8.98071L7.14419 9.12351L7.01968 9.26781L6.89698 9.41301L6.77564 9.55951L6.65593 9.70701L6.53779 9.85571L6.42119 10.0054L6.30631 10.1561L6.19293 10.3079L6.08111 10.4609L5.97109 10.6146L5.86254 10.7696L5.75572 10.9254L5.65055 11.0822L5.54696 11.24L5.44512 11.3987L5.34495 11.5582L5.24646 11.7187L5.14973 11.88L5.05459 12.0423L4.96116 12.2055L4.86957 12.3693L4.77962 12.534L4.69139 12.6996L4.60495 12.8659L4.52021 13.033L4.43729 13.2007L4.3561 13.3692L4.2767 13.5384L4.19903 13.7084L4.1232 13.8789L4.04909 14.0502L3.97679 14.2221L3.90634 14.3945L3.83765 14.5676L3.77076 14.7413L3.70571 14.9155L3.64246 15.0903L3.58108 15.2655L3.52147 15.4414L3.46371 15.6177L3.4078 15.7945L3.35374 15.9716L3.30148 16.1494L3.25111 16.3274L3.20258 16.5059L3.15589 16.6847L3.11106 16.864L3.0681 17.0435L3.027 17.2234L2.98776 17.4036L2.95039 17.5841L2.91489 17.7648L2.88125 17.9458L2.84949 18.127L2.8196 18.3085L2.79159 18.4901L2.76545 18.6719L2.74119 18.8539L2.7188 19.036L2.69829 19.2182L2.67966 19.4006L2.66291 19.583L2.64803 19.7654L2.63503 19.948L2.62391 20.1306L2.61466 20.3131L2.60729 20.4957L2.60179 20.6782L2.59817 20.8607L2.59641 21.0431L2.59653 21.2255L2.59851 21.4077L2.60236 21.5899L2.60807 21.7719L2.61564 21.9537L2.62508 22.1354L2.63636 22.3168L2.6495 22.4981L2.66449 22.6791L2.68133 22.8599L2.7 23.0405L2.72052 23.2207L2.74287 23.4007L2.76705 23.5803L2.79306 23.7596L2.8209 23.9386L2.85054 24.1171L2.88201 24.2953L2.91528 24.4731L2.95035 24.6504L2.98722 24.8274L3.02588 25.0038L3.06633 25.1798L3.10856 25.3553L3.15256 25.5303L3.19834 25.7048L3.24586 25.8786L3.29516 26.052L3.3462 26.2248L3.39898 26.397L3.4535 26.5686L3.50973 26.7395L3.56769 26.9098L3.62737 27.0794L3.68875 27.2484L3.75181 27.4166L3.8166 27.5842L3.88303 27.751L3.95114 27.9171L4.02093 28.0824L4.09236 28.2469L4.16545 28.4107L4.24017 28.5737L4.31652 28.7358L4.39448 28.8971L4.47406 29.0575L4.55523 29.2171L4.638 29.3758L4.72234 29.5336L4.80826 29.6905L4.89573 29.8464L4.98475 30.0014L5.07531 30.1555L5.16741 30.3085L5.26098 30.4606L5.35612 30.6117L5.45271 30.7617L5.55081 30.9108L5.65038 31.0588L5.75139 31.2057L5.85385 31.3516L5.95778 31.4964L6.0631 31.6401L6.16987 31.7827L6.27799 31.9241L6.38756 32.0644L6.49844 32.2035L6.61072 32.3415L6.72438 32.4784L6.83931 32.614L6.95561 32.7484L7.0732 32.8816L7.19213 33.0136L7.31231 33.1443L7.43374 33.2738L7.55646 33.402L7.68041 33.529L7.80563 33.6547L7.93203 33.779L8.05967 33.9021L8.18845 34.0238L8.31842 34.1443L8.44959 34.2634L8.58188 34.3811L8.71523 34.4974L8.84981 34.6124L8.98551 34.726L9.12211 34.8382L9.26001 34.9491L9.39881 35.0584L9.53871 35.1664L9.67961 35.273L9.82161 35.3781L9.96451 35.4817L10.1084 35.5839L10.2532 35.6846L10.3991 35.7839L10.5458 35.8816L10.6936 35.9779L10.8421 36.0727L10.9916 36.1659L11.142 36.2577L11.2931 36.3479L11.4452 36.4366L11.598 36.5237L11.7517 36.6093L11.9061 36.6933L12.0614 36.7758L12.2173 36.8567L12.374 36.9361L12.5315 37.0138L12.6897 37.09L12.8485 37.1646L13.008 37.2376L13.1681 37.3089L13.329 37.3787L13.4904 37.4468L13.6525 37.5134L13.8151 37.5783L13.9783 37.6415L14.1421 37.7032L14.3063 37.7632L14.4711 37.8215L14.6365 37.8782L14.8023 37.9333L14.9686 37.9867L15.1352 38.0384L15.3025 38.0885L15.47 38.1369L15.638 38.1836L15.8064 38.2287L15.9751 38.2721L16.1442 38.3138L16.3135 38.3538L16.4833 38.3922L16.6533 38.4288L16.8235 38.4638L16.9941 38.4971L17.1649 38.5287L17.3359 38.5586L17.5071 38.5868L17.6785 38.6133L17.8501 38.6381L18.0219 38.6612L18.1937 38.6827L18.3657 38.7024L18.5378 38.7204L18.71 38.7368L18.8823 38.7514L19.0546 38.7644L19.2269 38.7756L19.3993 38.7852L19.5716 38.793L19.7439 38.7992L19.9162 38.8037L20.0885 38.8064L20.2606 38.8075L20.4327 38.8069L20.6047 38.8046L20.7765 38.8007L20.9482 38.795L21.1198 38.7877L21.2912 38.7787L21.4623 38.768L21.6333 38.7557L21.8041 38.7417L21.9746 38.726L22.1448 38.7086L22.3148 38.6896L22.4844 38.669L22.6538 38.6467L22.8228 38.6227L22.9915 38.5971L23.1598 38.5699L23.3278 38.541L23.4954 38.5105L23.6625 38.4784L23.8292 38.4447L23.9955 38.4093L24.1613 38.3724L24.3266 38.3338L24.4915 38.2936L24.6558 38.2519L24.8196 38.2085L24.9828 38.1636L25.1456 38.1171L25.3077 38.069L25.4693 38.0194L25.6302 37.9683L25.7906 37.9155L25.9503 37.8613L26.1092 37.8055L26.2677 37.7481L26.4254 37.6893L26.5824 37.6289L26.7387 37.5671L26.8942 37.5038L27.049 37.4389L27.2031 37.3726L27.3564 37.3048L27.5088 37.2356L27.6606 37.1649L27.8115 37.0927L27.9615 37.0192L28.1108 36.9441L28.2591 36.8677L28.4066 36.7899L28.5533 36.7106L28.6989 36.63L28.8437 36.548L28.9875 36.4647L29.1306 36.3799L29.2724 36.2939L29.4136 36.2064L29.5535 36.1177L29.6925 36.0276L29.8306 35.9362L29.9677 35.8434L30.1035 35.7496L30.2384 35.6543L30.3723 35.5578L30.5051 35.4601L30.6369 35.361L30.7674 35.2609L30.8971 35.1593L31.0254 35.0567L31.1526 34.9529L31.2789 34.8478L31.4039 34.7415L31.5276 34.6342L31.6503 34.5256L31.7717 34.416L31.892 34.3052L32.0111 34.1933L32.1288 34.0804L32.2455 33.9662L32.3609 33.851L32.475 33.7348L32.5879 33.6175L32.6994 33.4993L32.8096 33.3801L32.9188 33.2595L33.0264 33.1383L33.1329 33.0159L33.2379 32.8927L33.3417 32.7684L33.4441 32.6433L33.5451 32.5172L33.6449 32.3901L33.7432 32.2623L33.8403 32.1334L33.9358 32.0038L34.0301 31.8732L34.1231 31.7417L34.2143 31.6097L34.3044 31.4766L34.3929 31.3429L34.4801 31.2082L34.566 31.0727L34.6502 30.9367L34.733 30.7999L34.8145 30.662L34.8943 30.5239L34.9728 30.3848L35.0499 30.245L35.1253 30.1048L35.1994 29.9636L35.272 29.8218L35.3429 29.6799L35.4125 29.5368L35.4806 29.3932L35.5471 29.2492L35.6121 29.1046L35.6756 28.9594L35.7375 28.8138L35.798 28.6674L35.8569 28.5206L35.9142 28.3737L35.97 28.2257L36.0242 28.0777L36.077 27.929L36.1282 27.78L36.1778 27.6305L36.2257 27.481L36.2723 27.3304L36.3171 27.18L36.3604 27.0291L36.4022 26.878L36.4424 26.7263L36.4809 26.5746L36.518 26.4224L36.5534 26.2699L36.5873 26.1173L36.6196 25.9643L36.6502 25.8114L36.6793 25.6578L36.7068 25.5046L36.7327 25.3508L36.757 25.1969L36.7797 25.043L36.8009 24.8888L36.8204 24.7348L36.8384 24.5801L36.8547 24.426L36.8695 24.2714L36.8826 24.1171L36.8942 23.9623L36.9042 23.8081L36.9126 23.6534L36.9194 23.4986L36.9246 23.3442L36.9283 23.1901L36.9303 23.0354L36.9308 22.881L36.9297 22.7268L36.927 22.5727L36.9227 22.4186L36.9168 22.2651L36.9094 22.111L36.9004 21.9576L36.8898 21.8042L36.8777 21.6513L36.864 21.4981L36.8488 21.3456L36.832 21.193L36.8136 21.0409L36.7937 20.8889L36.7723 20.7374L36.7492 20.5858L36.7247 20.4349L36.6987 20.2845L36.6711 20.134L36.6419 19.984L36.6113 19.8346L36.5791 19.6851L36.5456 19.5367L36.5103 19.3881L36.4738 19.2405L36.4355 19.0927L36.3959 18.946L36.3548 18.7995L36.3122 18.6533L36.2682 18.508L36.2227 18.3632L36.1756 18.2185L36.1273 18.0749L36.0773 17.9314L36.0261 17.7888L35.9733 17.6465L35.9192 17.5052L35.8635 17.3641L35.8065 17.2238L35.7482 17.0844L35.6885 16.9456L35.6271 16.807L35.5648 16.6697L35.5007 16.5325L35.4355 16.3966L35.3689 16.2612L35.3008 16.1263L35.2316 15.9925L35.1609 15.8593L35.0888 15.7267L35.0158 15.5954L34.9411 15.4644L34.8653 15.3345L34.788 15.2052L34.7098 15.0772L34.6299 14.9495L34.5491 14.823L34.4668 14.6971L34.3834 14.5723L34.2989 14.4486L34.2129 14.3254L34.1258 14.2033L34.0376 14.0821L33.9481 13.962L33.8575 13.8426L33.7657 13.7244L33.6728 13.607L33.5787 13.4907L33.4835 13.3754L33.3871 13.261L33.2896 13.1477L33.1911 13.0354L33.0916 12.9242L32.9909 12.814L32.8889 12.7047L32.7864 12.5969L32.6822 12.4897L32.5775 12.384L32.4716 12.2791L32.3648 12.1755L32.2566 12.0727L32.148 11.9715L32.038 11.8711L31.9271 11.7719L31.8156 11.674L31.703 11.5772L31.5891 11.4813L31.4746 11.3868L31.3593 11.2935L31.243 11.2014L31.1258 11.1104L31.008 11.0209L30.8889 10.9321L30.7694 10.845L30.6489 10.759L30.5275 10.6741L30.4056 10.5906L30.2824 10.5081L30.1592 10.4273L30.0346 10.3474L29.9096 10.2689L29.7836 10.1916L29.6571 10.1156L29.5299 10.041L29.4022 9.96781L29.2733 9.89551L29.1444 9.82491L29.0144 9.75541L28.8839 9.68731L28.7529 9.62061L28.6211 9.55511L28.4888 9.49091L28.356 9.42821L28.2225 9.36671L28.0887 9.30671L27.9542 9.24791L27.8149 9.18871L27.6839 9.13461L27.5476 9.07981L27.4115 9.02671L27.2743 8.97461L27.1371 8.92421L26.9993 8.87501L26.8612 8.82731L26.7225 8.78081L26.5837 8.73591L26.4443 8.69231L26.3046 8.65011L26.1648 8.60941L26.0244 8.56997L25.8835 8.53189L25.7428 8.49536L25.6018 8.46022L25.4599 8.42637L25.3185 8.39408L25.1764 8.36308L25.0343 8.33358L24.8917 8.30542L24.7493 8.27874L24.6065 8.25344L24.4638 8.22961L24.3204 8.20711L24.1774 8.1861L24.0341 8.16648L23.8906 8.14827L23.7471 8.13149L23.6036 8.11615L23.46 8.10221L23.3163 8.08969L23.1725 8.07858L23.0286 8.06888L22.8851 8.06062L22.7415 8.05377L22.5974 8.04832L22.4541 8.0443L22.3105 8.04168L22.167 8.04048L22.0233 8.04068L21.9945 8.04101L22.0398 11.8632L22.1213 11.8628L22.2262 11.8634L22.3311 11.865L22.4361 11.8677L22.5412 11.8714L22.6463 11.8762L22.7514 11.882L22.8566 11.8888L22.9618 11.8967L23.067 11.9056L23.1722 11.9156L23.2773 11.9266L23.3825 11.9387L23.4876 11.9518L23.5926 11.9659L23.6976 11.9812L23.8025 11.9974L23.9073 12.0147L24.0121 12.0331L24.1167 12.0525L24.2212 12.073L24.3256 12.0945L24.4299 12.117L24.534 12.1406L24.6379 12.1653L24.7417 12.191L24.8452 12.2177L24.9486 12.2455L25.0518 12.2743L25.1548 12.3042L25.2576 12.3351L25.3601 12.367L25.4623 12.4L25.5643 12.434L25.6661 12.4691L25.7675 12.5052L25.8687 12.5423L25.9695 12.5804L26.0701 12.6196L26.1703 12.6598L26.2702 12.701L26.3697 12.7433L26.4689 12.7865L26.5677 12.8308L26.6661 12.876L26.7641 12.9223L26.8618 12.9696L26.959 13.0179L27.0558 13.0672L27.1522 13.1175L27.2481 13.1687L27.3436 13.221L27.4386 13.2742L27.5331 13.3284L27.6272 13.3836L27.7208 13.4398L27.8138 13.4969L27.9063 13.555L27.9983 13.6141L28.0898 13.6741L28.1807 13.735L28.2711 13.7969L28.3609 13.8598L28.4501 13.9235L28.5387 13.9882L28.6267 14.0539L28.7142 14.1204L28.8009 14.1879L28.8871 14.2563L28.9726 14.3255L29.0575 14.3957L29.1417 14.4668L29.2253 14.5387L29.3082 14.6115L29.3904 14.6852L29.4719 14.7598L29.5526 14.8352L29.6327 14.9115L29.712 14.9886L29.7906 15.0666L29.8685 15.1454L29.9456 15.2251L30.022 15.3055L30.0975 15.3868L30.1723 15.4689L30.2463 15.5518L30.3195 15.6354L30.3919 15.7199L30.4635 15.8051L30.5343 15.8911L30.6042 15.9779L30.6733 16.0654L30.7415 16.1537L30.8089 16.2427L30.8754 16.3325L30.941 16.4229L31.0058 16.5141L31.0696 16.606L31.1326 16.6986L31.1946 16.7919L31.2557 16.8858L31.3159 16.9805L31.3752 17.0758L31.4336 17.1717L31.491 17.2683L31.5474 17.3656L31.6029 17.4634L31.6574 17.5619L31.7109 17.661L31.7635 17.7607L31.8151 17.861L31.8656 17.9619L31.9152 18.0634L31.9638 18.1654L32.0113 18.2679L32.0578 18.3711L32.1033 18.4747L32.1478 18.5789L32.1912 18.6836L32.2336 18.7888L32.2749 18.8945L32.3151 19.0006L32.3543 19.1073L32.3924 19.2144L32.4295 19.322L32.4655 19.43L32.5003 19.5385L32.5341 19.6473L32.5668 19.7566L32.5984 19.8663L32.6289 19.9764L32.6582 20.0869L32.6865 20.1977L32.7136 20.3089L32.7396 20.4204L32.7645 20.5323L32.7882 20.6445L32.8108 20.757L32.8322 20.8698L32.8525 20.983L32.8717 21.0964L32.8897 21.21L32.9065 21.324L32.9222 21.4381L32.9367 21.5525L32.9501 21.6672L32.9622 21.7821L32.9732 21.8971L32.9831 22.0124L32.9917 22.1278L32.9992 22.2434L33.0054 22.3591L33.0105 22.475L33.0144 22.5911L33.0171 22.7072L33.0186 22.8235L33.0189 22.9399L33.018 23.0563L33.0159 23.1728L33.0126 23.2894L33.0081 23.4061L33.0024 23.5227L32.9955 23.6394L32.9874 23.7562L32.9781 23.8729L32.9675 23.9896L32.9558 24.1063L32.9428 24.2229L32.9287 24.3396L32.9133 24.4561L32.8967 24.5726L32.8789 24.689L32.8599 24.8053L32.8397 24.9215L32.8182 25.0376L32.7956 25.1536L32.7717 25.2694L32.7466 25.3851L32.7204 25.5006L32.6929 25.6159L32.6642 25.731L32.6343 25.846L32.6032 25.9607L32.5709 26.0752L32.5374 26.1894L32.5027 26.3034L32.4668 26.4172L32.4296 26.5307L32.3913 26.6438L32.3518 26.7567L32.3112 26.8693L32.2693 26.9815L32.2262 27.0934L32.182 27.205L32.1366 27.3162L32.09 27.4271L32.0422 27.5375L31.9933 27.6476L31.9432 27.7573L31.8919 27.8665L31.8395 27.9753L31.7859 28.0837L31.7311 28.1916L31.6752 28.2991L31.6182 28.406L31.56 28.5125L31.5007 28.6185L31.4403 28.724L31.3787 28.8289L31.316 28.9334L31.2522 29.0372L31.1873 29.1406L31.1212 29.2433L31.0541 29.3455L30.9858 29.447L30.9165 29.548L30.8461 29.6484L30.7746 29.7481L30.702 29.8472L30.6284 29.9457L30.5537 30.0435L30.4779 30.1406L30.4011 30.237L30.3232 30.3328L30.2443 30.4278L30.1644 30.5222L30.0834 30.6158L30.0014 30.7087L29.9184 30.8008L29.8344 30.8922L29.7494 30.9828L29.6635 31.0727L29.5765 31.1617L29.4886 31.25L29.3996 31.3374L29.3098 31.4241L29.2189 31.5099L29.1272 31.5948L29.0345 31.679L28.9408 31.7622L28.8463 31.8446L28.7508 31.9262L28.6545 32.0068L28.5572 32.0866L28.4591 32.1654L28.36 32.2433L28.2601 32.3203L28.1594 32.3964L28.0578 32.4715L27.9553 32.5457L27.8521 32.619L27.748 32.6912L27.6431 32.7625L27.5373 32.8328L27.4308 32.9021L27.3235 32.9704L27.2155 33.0377L27.1066 33.1039L26.9971 33.1692L26.8867 33.2334L26.7757 33.2965L26.6639 33.3586L26.5514 33.4197L26.4382 33.4797L26.3243 33.5386L26.2097 33.5964L26.0945 33.6531L25.9786 33.7088L25.862 33.7633L25.7448 33.8167L25.627 33.869L25.5086 33.9202L25.3895 33.9702L25.2699 34.0191L25.1497 34.0669L25.0289 34.1135L24.9076 34.159L24.7857 34.2033L24.6633 34.2464L24.5403 34.2883L24.4169 34.3291L24.2929 34.3686L24.1685 34.407L24.0436 34.4442L23.9182 34.4801L23.7924 34.5149L23.6661 34.5484L23.5394 34.5807L23.4123 34.6118L23.2848 34.6417L23.1568 34.6703L23.0286 34.6977L22.8999 34.7238L22.7709 34.7487L22.6416 34.7724L22.5119 34.7948L22.3819 34.8159L22.2517 34.8357L22.1211 34.8543L21.9902 34.8716L21.8591 34.8877L21.7278 34.9024L21.5962 34.9159L21.4644 34.9281L21.3324 34.939L21.2002 34.9486L21.0678 34.9569L20.9352 34.9639L20.8025 34.9696L20.6696 34.974L20.5366 34.9771L20.4035 34.9789L20.2702 34.9794L20.1369 34.9786L20.0036 34.9764L19.8701 34.973L19.7366 34.9682L19.6031 34.9621L19.4695 34.9547L19.336 34.946L19.2024 34.936L19.0689 34.9246L18.9354 34.9119L18.8019 34.8979L18.6685 34.8826L18.5352 34.866L18.4019 34.848L18.2688 34.8287L18.1358 34.8081L18.0029 34.7862L17.8701 34.7629L17.7375 34.7384L17.6051 34.7125L17.4729 34.6852L17.3408 34.6567L17.209 34.6269L17.0774 34.5957L16.946 34.5632L16.8149 34.5294L16.684 34.4943L16.5534 34.4579L16.4232 34.4202L16.2932 34.3812L16.1635 34.3409L16.0342 34.2992L15.9053 34.2563L15.7766 34.2121L15.6484 34.1666L15.5206 34.1198L15.3931 34.0717L15.2661 34.0223L15.1395 33.9717L15.0133 33.9197L14.8876 33.8665L14.7624 33.8121L14.6377 33.7563L14.5134 33.6993L14.3897 33.6411L14.2665 33.5816L14.1438 33.5208L14.0216 33.4588L13.9001 33.3956L13.7791 33.3311L13.6587 33.2654L13.5389 33.1985L13.4197 33.1303L13.3011 33.061L13.1832 32.9904L13.0659 32.9186L12.9493 32.8457L12.8334 32.7715L12.7182 32.6962L12.6037 32.6196L12.4899 32.5419L12.3768 32.4631L12.2645 32.3831L12.1529 32.3019L12.0421 32.2196L11.932 32.1361L11.8228 32.0515L11.7144 31.9658L11.6068 31.8789L11.5 31.791L11.394 31.7019L11.2889 31.6118L11.1847 31.5205L11.0813 31.4282L10.9788 31.3348L10.8773 31.2404L10.7766 31.1449L10.6768 31.0483L10.578 30.9507L10.4802 30.8521L10.3833 30.7524L10.2873 30.6518L10.1923 30.5501L10.0984 30.4475L10.0054 30.3438L9.91341 30.2392L9.82251 30.1336L9.73251 30.0271L9.64371 29.9196L9.55581 29.8111L9.46911 29.7018L9.38341 29.5915L9.29881 29.4803L9.21531 29.3682L9.13281 29.2553L9.05151 29.1414L8.97141 29.0267L8.89231 28.9111L8.81441 28.7947L8.73767 28.6775L8.66208 28.5594L8.58765 28.4405L8.51441 28.3208L8.44235 28.2003L8.37149 28.0791L8.30183 27.957L8.23338 27.8343L8.16616 27.7107L8.10017 27.5865L8.03541 27.4615L7.9719 27.3358L7.90965 27.2094L7.84866 27.0823L7.78894 26.9546L7.7305 26.8261L7.67334 26.6971L7.61748 26.5674L7.56292 26.437L7.50966 26.3061L7.45773 26.1746L7.40711 26.0424L7.35782 25.9097L7.30986 25.7765L7.26325 25.6426L7.21799 25.5083L7.17408 25.3734L7.13153 25.238L7.09035 25.1022L7.05054 24.9658L7.01211 24.829L6.97506 24.6917L6.93941 24.5539L6.90515 24.4158L6.87228 24.2772L6.84083 24.1382L6.81078 23.9988L6.78215 23.8591L6.75494 23.719L6.72915 23.5785L6.70479 23.4377L6.68187 23.2966L6.66038 23.1552L6.64033 23.0135L6.62173 22.8715L6.60458 22.7292L6.58888 22.5867L6.57463 22.444L6.56184 22.301L6.55052 22.1578L6.54066 22.0145L6.53226 21.8709L6.52534 21.7272L6.51989 21.5834L6.51592 21.4394L6.51342 21.2953L6.5124 21.151L6.51287 21.0067L6.51481 20.8623L6.51825 20.7179L6.52316 20.5734L6.52957 20.4288L6.53747 20.2843L6.54685 20.1397L6.55773 19.9952L6.57009 19.8506L6.58395 19.7062L6.59931 19.5617L6.61615 19.4174L6.63449 19.2731L6.65432 19.1289L6.67564 18.9848L6.69846 18.8409L6.72276 18.6971L6.74856 18.5535L6.77585 18.41L6.80463 18.2667L6.83489 18.1237L6.86665 17.9808L6.89989 17.8382L6.93461 17.6958L6.97081 17.5537L7.0085 17.4119L7.04766 17.2703L7.0883 17.1291L7.13042 16.9882L7.174 16.8476L7.21906 16.7073L7.26558 16.5675L7.31356 16.428L7.36301 16.2889L7.41391 16.1502L7.46626 16.0119L7.52006 15.8741L7.57531 15.7367L7.632 15.5998L7.69013 15.4634L7.74969 15.3274L7.81069 15.192L7.8731 15.0571L7.93694 14.9227L8.00219 14.7889L8.06886 14.6557L8.13693 14.523L8.2064 14.391L8.27726 14.2595L8.34952 14.1287L8.42316 13.9985L8.49817 13.8689L8.57456 13.7401L8.65232 13.6119L8.73143 13.4844L8.81191 13.3576L8.89371 13.2315L8.97691 13.1062L9.06131 12.9816L9.14721 12.8578L9.23431 12.7347L9.32271 12.6124L9.41251 12.491L9.50351 12.3703L9.59591 12.2505L9.68951 12.1315L9.78441 12.0134L9.88051 11.8962L9.97791 11.7798L10.0766 11.6643L10.1765 11.5497L10.2776 11.4361L10.38 11.3234L10.4835 11.2116L10.5883 11.1008L10.6943 10.9909L10.8014 10.8821L10.9097 10.7742L11.0192 10.6673L11.1299 10.5615L11.2417 10.4566L11.3546 10.3529L11.4687 10.2501L11.5839 10.1485L11.7001 10.0479L11.8175 9.94841L11.936 9.85001L12.0555 9.75271L12.1761 9.65651L12.2978 9.56151L12.4205 9.46761L12.5442 9.37491L12.669 9.28331L12.7947 9.19291L12.9214 9.10371L13.0492 9.01571L13.1779 8.92891L13.3075 8.84341L13.4382 8.75901L13.5697 8.67591L13.7022 8.59405L13.8356 8.51344L13.9699 8.4341L14.105 8.35604L14.2411 8.27926L14.378 8.20377L14.5157 8.1296L14.6543 8.05674L14.7937 7.9852L14.9339 7.91499L15.0749 7.84612L15.2167 7.7786L15.3593 7.71244L15.5026 7.64764L15.6467 7.58421L15.7915 7.52217L15.937 7.46152L16.0832 7.40226L16.23 7.34441L16.3776 7.28797L16.5258 7.23295L16.6747 7.17936L16.8242 7.1272L16.9743 7.07648L17.125 7.02721L17.2762 6.9794L17.4281 6.93304L17.5805 6.88815L17.7335 6.84474L17.8869 6.8028L18.0409 6.76235L18.1954 6.72339L18.3504 6.68593L18.5058 6.64998L18.6617 6.61552L18.818 6.58258L18.9747 6.55116L19.1319 6.52127L19.2894 6.4929L19.4473 6.46606L19.6056 6.44076L19.7642 6.417L19.9231 6.39479L20.0823 6.37412L20.1417 6.367ZM20.2089 12.0361L20.1631 8.1719L20.0326 8.19014L19.8923 8.21117L19.7519 8.2336L19.6124 8.25731L19.4727 8.28247L19.3337 8.30892L19.195 8.33673L19.0568 8.36584L18.9189 8.39633L18.7813 8.42817L18.6441 8.46132L18.5075 8.49578L18.371 8.53162L18.2399 8.56741L18.1002 8.60711L17.9653 8.64681L17.831 8.68781L17.6974 8.73001L17.5641 8.77361L17.4313 8.81851L17.2991 8.86461L17.1676 8.91191L17.0366 8.96061L16.9062 9.01041L16.7763 9.06161L16.6474 9.11391L16.5185 9.16761L16.3906 9.22241L16.2633 9.27841L16.1369 9.33561L16.0108 9.39411L15.8854 9.45381L15.7611 9.51451L15.637 9.57661L15.5142 9.63971L15.3916 9.70421L15.2702 9.76951L15.149 9.83641L15.029 9.90401L14.9098 9.97291L14.7912 10.043L14.6735 10.1141L14.5564 10.1865L14.4405 10.2597L14.3251 10.3342L14.2108 10.4097L14.0973 10.4862L13.9846 10.5639L13.8726 10.6427L13.7619 10.7222L13.6518 10.8031L13.5426 10.8849L13.4344 10.9677L13.3272 11.0514L13.2207 11.1363L13.1154 11.222L13.011 11.3087L12.9074 11.3966L12.8051 11.4851L12.7035 11.5748L12.6029 11.6654L12.5034 11.7568L12.405 11.8491L12.3073 11.9425L12.211 12.0365L12.1156 12.1315L12.0211 12.2275L11.9278 12.3242L11.8355 12.4219L11.7443 12.5203L11.6542 12.6195L11.5651 12.7196L11.477 12.8206L11.3904 12.9221L11.3046 13.0246L11.2199 13.1279L11.1364 13.2318L11.0541 13.3364L10.9727 13.442L10.8926 13.5481L10.8136 13.655L10.7358 13.7626L10.6591 13.8709L10.5837 13.9797L10.5094 14.0893L10.4362 14.1996L10.3642 14.3105L10.2935 14.4219L10.224 14.534L10.1556 14.6469L10.0884 14.7601L10.0225 14.874L9.95771 14.9885L9.89431 15.1033L9.83201 15.2189L9.77081 15.3351L9.71111 15.4515L9.65251 15.5687L9.59521 15.6863L9.53911 15.8042L9.48431 15.9228L9.43071 16.0417L9.37841 16.1611L9.32731 16.2809L9.27761 16.4011L9.22911 16.5217L9.18181 16.6428L9.13581 16.7642L9.09121 16.8859L9.04771 17.0081L9.00571 17.1304L8.96481 17.2532L8.92531 17.3763L8.88701 17.4997L8.85011 17.6233L8.81441 17.7472L8.78011 17.8713L8.74702 17.9958L8.71526 18.1204L8.68481 18.2453L8.65567 18.3704L8.62782 18.4956L8.60127 18.6211L8.57606 18.7467L8.55213 18.8724L8.52951 18.9984L8.50822 19.1244L8.48821 19.2506L8.46954 19.3767L8.45215 19.5031L8.43609 19.6295L8.42133 19.756L8.40788 19.8825L8.39574 20.0091L8.38491 20.1357L8.37539 20.2622L8.36717 20.3889L8.36025 20.5155L8.35464 20.642L8.35034 20.7685L8.34733 20.8949L8.34563 21.0213L8.34522 21.1477L8.34611 21.2739L8.3483 21.4L8.35178 21.526L8.35654 21.6518L8.3626 21.7776L8.36994 21.9032L8.37856 22.0285L8.38847 22.1538L8.39965 22.2788L8.41211 22.4036L8.42584 22.5282L8.44083 22.6526L8.4571 22.7768L8.47462 22.9006L8.49341 23.0243L8.51344 23.1475L8.53473 23.2706L8.55727 23.3934L8.58104 23.5157L8.60606 23.6379L8.6323 23.7596L8.65979 23.8811L8.68847 24.002L8.71841 24.1227L8.74955 24.243L8.78191 24.3629L8.81541 24.4823L8.85021 24.6014L8.88611 24.72L8.92331 24.8382L8.96161 24.956L9.00111 25.0732L9.04181 25.1899L9.08361 25.3062L9.12661 25.422L9.17081 25.5373L9.21611 25.652L9.26251 25.7662L9.31011 25.8799L9.35881 25.993L9.40871 26.1055L9.45961 26.2175L9.51171 26.3288L9.56491 26.4396L9.61911 26.5498L9.67451 26.6593L9.73091 26.7683L9.78841 26.8766L9.84701 26.9842L9.90661 27.0912L9.96731 27.1975L10.029 27.3031L10.0918 27.408L10.1556 27.5123L10.2204 27.6158L10.2862 27.7186L10.3531 27.8208L10.4208 27.922L10.4897 28.0227L10.5594 28.1225L10.6302 28.2216L10.7019 28.3199L10.7746 28.4174L10.8482 28.5141L10.9228 28.6101L10.9982 28.7052L11.0746 28.7995L11.1519 28.893L11.2301 28.9857L11.3092 29.0774L11.3892 29.1685L11.47 29.2585L11.5517 29.3478L11.6342 29.4361L11.7176 29.5236L11.8018 29.6102L11.8869 29.6959L11.9727 29.7807L12.0594 29.8646L12.1469 29.9476L12.235 30.0296L12.3241 30.1108L12.4138 30.1909L12.5043 30.2701L12.5956 30.3484L12.6876 30.4257L12.7803 30.5021L12.8737 30.5774L12.9678 30.6518L13.0626 30.7252L13.1581 30.7977L13.2543 30.8691L13.351 30.9395L13.4484 31.0089L13.5465 31.0773L13.6452 31.1447L13.7446 31.2111L13.8445 31.2764L13.945 31.3407L14.0461 31.404L14.1477 31.4662L14.2499 31.5274L14.3527 31.5875L14.4559 31.6465L14.5598 31.7045L14.664 31.7614L14.7689 31.8173L14.8742 31.8721L14.9799 31.9257L15.0862 31.9784L15.193 32.0299L15.3001 32.0804L15.4076 32.1297L15.5157 32.178L15.624 32.2251L15.7328 32.2711L15.842 32.3161L15.9516 32.3599L16.0614 32.4026L16.1717 32.4442L16.2823 32.4847L16.3932 32.5241L16.5044 32.5623L16.616 32.5995L16.7278 32.6354L16.8399 32.6703L16.9523 32.704L17.0649 32.7366L17.1777 32.7681L17.2908 32.7984L17.4041 32.8277L17.5176 32.8557L17.6313 32.8826L17.7452 32.9084L17.8593 32.9331L17.9735 32.9566L18.0878 32.9789L18.2024 33.0001L18.3169 33.0202L18.4317 33.0392L18.5465 33.0569L18.6614 33.0736L18.7764 33.0891L18.8914 33.1035L19.0065 33.1167L19.1216 33.1288L19.2368 33.1397L19.352 33.1495L19.4672 33.1581L19.5824 33.1657L19.6975 33.172L19.8126 33.1773L19.9278 33.1814L20.0428 33.1844L20.1577 33.1862L20.2726 33.1869L20.3874 33.1865L20.5021 33.1849L20.6167 33.1823L20.7311 33.1785L20.8455 33.1736L20.9596 33.1675L21.0736 33.1604L21.1874 33.1521L21.3011 33.1427L21.4145 33.1322L21.5278 33.1206L21.6409 33.1079L21.7537 33.0941L21.8663 33.0792L21.9786 33.0633L22.0907 33.0462L22.2025 33.028L22.3139 33.0088L22.4252 32.9884L22.5361 32.967L22.6467 32.9446L22.7571 32.921L22.8669 32.8964L22.9765 32.8708L23.0857 32.844L23.1946 32.8163L23.3031 32.7875L23.4112 32.7576L23.5189 32.7267L23.6262 32.6948L23.733 32.6619L23.8394 32.6279L23.9455 32.5929L24.051 32.5569L24.1561 32.5199L24.2607 32.4819L24.3648 32.4429L24.4684 32.4029L24.5715 32.3619L24.6742 32.3199L24.7763 32.277L24.8778 32.2331L24.9789 32.1883L25.0793 32.1425L25.1793 32.0957L25.2787 32.048L25.3773 31.9995L25.4757 31.9498L25.5732 31.8994L25.6703 31.8479L25.7665 31.7957L25.8623 31.7425L25.9575 31.6884L26.0519 31.6334L26.1458 31.5775L26.239 31.5208L26.3314 31.4632L26.4234 31.4047L26.5144 31.3455L26.6049 31.2853L26.6948 31.2242L26.7838 31.1624L26.872 31.0999L26.9598 31.0363L27.0466 30.9722L27.1328 30.9071L27.2183 30.8412L27.3027 30.7747L27.3868 30.7072L27.47 30.639L27.5521 30.5702L27.6339 30.5003L27.7146 30.43L27.7945 30.359L27.8739 30.2869L27.9521 30.2145L28.0297 30.1412L28.1065 30.0672L28.1823 29.9926L28.2574 29.9172L28.3317 29.8412L28.4051 29.7645L28.4775 29.6872L28.5492 29.6092L28.6201 29.5306L28.6899 29.4515L28.7591 29.3715L28.8272 29.2911L28.8944 29.2101L28.9609 29.1283L29.0263 29.0463L29.0909 28.9634L29.1546 28.8801L29.2174 28.7961L29.2792 28.7117L29.34 28.6269L29.4001 28.5412L29.4591 28.4553L29.5172 28.3688L29.5745 28.2817L29.6305 28.1944L29.6859 28.1064L29.7402 28.0179L29.7936 27.9291L29.8459 27.8398L29.8975 27.7499L29.9478 27.66L29.9974 27.5692L30.0459 27.4783L30.0933 27.387L30.14 27.295L30.1854 27.2032L30.2301 27.1104L30.2735 27.0179L30.3163 26.9244L30.3577 26.8311L30.3984 26.737L30.438 26.643L30.4765 26.5486L30.5141 26.4538L30.5507 26.3587L30.5861 26.2636L30.6208 26.1679L30.6542 26.0721L30.6867 25.9761L30.7182 25.8798L30.7487 25.7832L30.7782 25.6865L30.8066 25.5897L30.834 25.4925L30.8603 25.3953L30.8857 25.2978L30.91 25.2002L30.9333 25.1026L30.9556 25.0045L30.9768 24.9065L30.9971 24.8084L31.0162 24.7103L31.0344 24.612L31.0515 24.5133L31.0676 24.415L31.0827 24.3164L31.0967 24.2177L31.1097 24.1192L31.1217 24.0205L31.1327 23.9215L31.1426 23.8232L31.1516 23.7241L31.1595 23.6254L31.1663 23.5269L31.1722 23.4281L31.177 23.3295L31.1808 23.231L31.1836 23.1322L31.1853 23.034L31.1861 22.9354L31.1858 22.8371L31.1846 22.7388L31.1823 22.6409L31.179 22.5428L31.1747 22.4449L31.1694 22.3474L31.1631 22.2496L31.1558 22.1521L31.1476 22.0551L31.1383 21.9578L31.128 21.8611L31.1167 21.7642L31.1045 21.6678L31.0913 21.5715L31.0771 21.4753L31.0619 21.3795L31.0458 21.284L31.0287 21.1887L31.0106 21.0937L30.9915 20.9986L30.9715 20.9042L30.9506 20.8101L30.9287 20.7161L30.9058 20.6223L30.8821 20.5293L30.8573 20.436L30.8317 20.3435L30.8051 20.2511L30.7776 20.1593L30.7492 20.0676L30.7198 19.9763L30.6896 19.8856L30.6585 19.7952L30.6263 19.7049L30.5935 19.6154L30.5596 19.5261L30.5249 19.4374L30.4893 19.3489L30.4528 19.2608L30.4155 19.1735L30.3772 19.0863L30.3382 18.9998L30.2983 18.9138L30.2575 18.828L30.2158 18.7427L30.1735 18.6582L30.1301 18.5739L30.0861 18.4904L30.0412 18.4074L29.9954 18.3245L29.949 18.2426L29.9016 18.161L29.8535 18.0801L29.8045 17.9995L29.755 17.9198L29.7044 17.8403L29.6533 17.7617L29.6013 17.6836L29.5486 17.6061L29.495 17.529L29.4408 17.4527L29.386 17.3771L29.3302 17.3018L29.2739 17.2274L29.2167 17.1535L29.1591 17.0804L29.1005 17.0077L29.0413 16.9358L28.9814 16.8645L28.9209 16.7938L28.8598 16.724L28.7978 16.6546L28.7354 16.5861L28.6722 16.5181L28.6086 16.4511L28.544 16.3844L28.4791 16.3187L28.4133 16.2534L28.3471 16.1891L28.2804 16.1255L28.213 16.0625L28.1449 16.0002L28.0763 15.9388L28.0072 15.8781L27.9373 15.8179L27.8674 15.7589L27.7965 15.7002L27.7252 15.6425L27.6534 15.5856L27.581 15.5292L27.5082 15.4738L27.4351 15.4193L27.3611 15.3653L27.2866 15.312L27.2121 15.2599L27.1366 15.2082L27.0612 15.1577L26.9851 15.1077L26.9085 15.0585L26.8314 15.0101L26.7542 14.9627L26.6762 14.9159L26.5981 14.8701L26.5193 14.8249L26.4406 14.7808L26.3612 14.7374L26.2814 14.6947L26.2013 14.6529L26.121 14.6121L26.0402 14.5719L25.959 14.5326L25.8777 14.4942L25.7962 14.4567L25.7138 14.4198L25.6318 14.384L25.5492 14.349L25.4662 14.3147L25.3831 14.2814L25.2999 14.249L25.2163 14.2174L25.1322 14.1865L25.0483 14.1567L24.9639 14.1276L24.8793 14.0994L24.7948 14.0721L24.7099 14.0457L24.625 14.0201L24.5394 13.9953L24.4541 13.9715L24.3686 13.9485L24.2829 13.9264L24.1971 13.9051L24.1109 13.8847L24.0249 13.8652L23.9389 13.8466L23.8525 13.8288L23.7659 13.8118L23.6798 13.7959L23.5931 13.7807L23.5066 13.7664L23.4197 13.7529L23.3333 13.7404L23.2462 13.7286L23.1597 13.7179L23.0729 13.7079L22.9861 13.6988L22.8994 13.6906L22.8125 13.6832L22.726 13.6767L22.639 13.6711L22.5524 13.6663L22.466 13.6624L22.379 13.6593L22.2927 13.6571L22.2063 13.6558L22.12 13.6553L22.061 13.6555L22.1057 17.4309L22.1324 17.431L22.182 17.4317L22.2317 17.4329L22.2815 17.4345L22.3313 17.4368L22.3812 17.4395L22.4311 17.4427L22.4811 17.4465L22.5311 17.4508L22.5812 17.4556L22.6313 17.4609L22.6814 17.4667L22.7316 17.4731L22.7817 17.48L22.8319 17.4874L22.8821 17.4954L22.9323 17.5039L22.9824 17.5129L23.0326 17.5225L23.0827 17.5325L23.1328 17.5432L23.1829 17.5543L23.233 17.566L23.2829 17.5782L23.3329 17.5909L23.3828 17.6042L23.4326 17.618L23.4824 17.6323L23.5321 17.6472L23.5817 17.6626L23.6312 17.6786L23.6807 17.6951L23.73 17.7121L23.7793 17.7296L23.8284 17.7477L23.8774 17.7663L23.9263 17.7854L23.9751 17.8051L24.0237 17.8253L24.0722 17.846L24.1206 17.8673L24.1688 17.8891L24.2169 17.9114L24.2648 17.9343L24.3125 17.9576L24.3601 17.9815L24.4074 18.006L24.4546 18.0309L24.5016 18.0564L24.5484 18.0824L24.595 18.1089L24.6414 18.1359L24.6875 18.1634L24.7335 18.1915L24.7792 18.2201L24.8247 18.2492L24.8699 18.2787L24.9149 18.3088L24.9597 18.3395L25.0042 18.3706L25.0484 18.4022L25.0924 18.4343L25.1361 18.4669L25.1795 18.5L25.2226 18.5336L25.2655 18.5677L25.308 18.6023L25.3502 18.6373L25.3922 18.6729L25.4338 18.7089L25.4751 18.7454L25.5161 18.7824L25.5567 18.8199L25.597 18.8578L25.6369 18.8962L25.6766 18.9351L25.7158 18.9744L25.7547 19.0142L25.7933 19.0544L25.8314 19.0951L25.8692 19.1363L25.9066 19.1779L25.9437 19.2199L25.9803 19.2624L26.0165 19.3053L26.0524 19.3486L26.0878 19.3924L26.1228 19.4366L26.1574 19.4812L26.1916 19.5263L26.2254 19.5717L26.2587 19.6176L26.2915 19.6638L26.324 19.7105L26.356 19.7576L26.3875 19.8051L26.4186 19.8529L26.4493 19.9012L26.4794 19.9498L26.5091 19.9988L26.5383 20.0482L26.567 20.0979L26.5953 20.148L26.623 20.1985L26.6503 20.2493L26.6771 20.3005L26.7033 20.352L26.7291 20.4038L26.7543 20.456L26.779 20.5086L26.8032 20.5614L26.8269 20.6146L26.8501 20.6681L26.8727 20.7219L26.8948 20.776L26.9163 20.8304L26.9373 20.8851L26.9578 20.9401L26.9777 20.9954L26.997 21.051L27.0158 21.1068L27.034 21.1629L27.0516 21.2193L27.0687 21.2759L27.0852 21.3328L27.1011 21.39L27.1165 21.4473L27.1313 21.5049L27.1454 21.5628L27.159 21.6209L27.172 21.6791L27.1844 21.7377L27.1962 21.7964L27.2073 21.8552L27.2179 21.9144L27.2279 21.9737L27.2373 22.0331L27.246 22.0928L27.2541 22.1526L27.2616 22.2126L27.2685 22.2728L27.2748 22.3331L27.2804 22.3935L27.2854 22.4541L27.2898 22.5149L27.2935 22.5757L27.2966 22.6367L27.299 22.6978L27.3009 22.759L27.302 22.8203L27.3026 22.8817L27.3024 22.9431L27.3017 23.0047L27.3003 23.0664L27.2982 23.1281L27.2955 23.1899L27.2921 23.2517L27.2881 23.3136L27.2834 23.3755L27.278 23.4375L27.272 23.4995L27.2654 23.5615L27.258 23.6235L27.25 23.6856L27.2414 23.7477L27.2321 23.8097L27.2221 23.8717L27.2114 23.9337L27.2001 23.9957L27.1881 24.0577L27.1755 24.1196L27.1621 24.1815L27.1481 24.2433L27.1335 24.3051L27.1181 24.3668L27.1021 24.4285L27.0855 24.49L27.0681 24.5515L27.0501 24.6128L27.0314 24.6741L27.0121 24.7353L26.9921 24.7963L26.9714 24.8573L26.9501 24.9181L26.928 24.9787L26.9053 25.0393L26.882 25.0996L26.858 25.1599L26.8333 25.2199L26.808 25.2798L26.782 25.3395L26.7553 25.3991L26.728 25.4584L26.7 25.5175L26.6713 25.5765L26.6421 25.6352L26.6121 25.6937L26.5815 25.752L26.5502 25.81L26.5183 25.8678L26.4858 25.9254L26.4526 25.9827L26.4187 26.0398L26.3843 26.0965L26.3491 26.1531L26.3134 26.2093L26.277 26.2652L26.2399 26.3209L26.2023 26.3762L26.164 26.4313L26.1251 26.486L26.0855 26.5404L26.0454 26.5945L26.0046 26.6482L25.9632 26.7016L25.9212 26.7547L25.8786 26.8074L25.8354 26.8597L25.7916 26.9117L25.7472 26.9633L25.7021 27.0145L25.6565 27.0653L25.6103 27.1158L25.5635 27.1658L25.5162 27.2154L25.4682 27.2647L25.4197 27.3135L25.3706 27.3618L25.321 27.4098L25.2707 27.4573L25.2199 27.5043L25.1686 27.5509L25.1167 27.5971L25.0643 27.6428L25.0113 27.688L24.9578 27.7327L24.9037 27.777L24.8491 27.8208L24.794 27.864L24.7384 27.9068L24.6823 27.9491L24.6256 27.9909L24.5685 28.0321L24.5108 28.0728L24.4527 28.1131L24.394 28.1527L24.3349 28.1919L24.2753 28.2304L24.2152 28.2685L24.1546 28.306L24.0936 28.3429L24.0321 28.3792L23.9702 28.415L23.9078 28.4502L23.8449 28.4848L23.7817 28.5189L23.718 28.5523L23.6539 28.5852L23.5893 28.6174L23.5244 28.6491L23.459 28.6801L23.3932 28.7105L23.3271 28.7403L23.2605 28.7694L23.1936 28.798L23.1263 28.8259L23.0586 28.8531L22.9905 28.8797L22.9221 28.9057L22.8533 28.931L22.7842 28.9557L22.7148 28.9797L22.645 29.003L22.5749 29.0257L22.5045 29.0476L22.4338 29.0689L22.3627 29.0896L22.2914 29.1095L22.2198 29.1288L22.1479 29.1473L22.0757 29.1652L22.0032 29.1823L21.9305 29.1988L21.8575 29.2145L21.7843 29.2296L21.7108 29.2439L21.6371 29.2575L21.5632 29.2704L21.489 29.2826L21.4147 29.294L21.3401 29.3047L21.2654 29.3147L21.1904 29.324L21.1153 29.3325L21.04 29.3402L20.9645 29.3473L20.8889 29.3535L20.8131 29.3591L20.7371 29.3638L20.6611 29.3679L20.5849 29.3712L20.5086 29.3737L20.4321 29.3754L20.3556 29.3764L20.279 29.3767L20.2023 29.3762L20.1255 29.3749L20.0486 29.3728L19.9717 29.37L19.8947 29.3664L19.8176 29.362L19.7405 29.3569L19.6634 29.351L19.5863 29.3443L19.5091 29.3368L19.432 29.3286L19.3548 29.3195L19.2777 29.3097L19.2005 29.2991L19.1234 29.2878L19.0463 29.2756L18.9693 29.2627L18.8923 29.249L18.8154 29.2345L18.7385 29.2193L18.6617 29.2032L18.585 29.1864L18.5084 29.1687L18.4319 29.1503L18.3554 29.1312L18.2791 29.1112L18.203 29.0904L18.1269 29.0689L18.0511 29.0466L17.9753 29.0235L17.8997 28.9996L17.8243 28.975L17.749 28.9496L17.674 28.9234L17.5991 28.8964L17.5244 28.8686L17.45 28.8401L17.3757 28.8108L17.3017 28.7807L17.2279 28.7499L17.1544 28.7183L17.0811 28.6859L17.008 28.6528L16.9353 28.6189L16.8627 28.5842L16.7905 28.5488L16.7186 28.5126L16.647 28.4757L16.5757 28.438L16.5047 28.3996L16.434 28.3604L16.3637 28.3205L16.2936 28.2798L16.224 28.2384L16.1547 28.1963L16.0858 28.1534L16.0172 28.1098L15.949 28.0655L15.8812 28.0204L15.8138 27.9746L15.7469 27.9281L15.6803 27.8809L15.6141 27.833L15.5484 27.7843L15.4831 27.735L15.4183 27.685L15.3539 27.6342L15.29 27.5828L15.2265 27.5307L15.1635 27.4779L15.101 27.4244L15.039 27.3702L14.9775 27.3154L14.9165 27.2599L14.856 27.2037L14.796 27.1469L14.7366 27.0894L14.6776 27.0313L14.6193 26.9725L14.5615 26.9131L14.5042 26.853L14.4475 26.7924L14.3914 26.731L14.3359 26.6691L14.2809 26.6066L14.2266 26.5434L14.1728 26.4797L14.1196 26.4153L14.0671 26.3503L14.0152 26.2848L13.9639 26.2187L13.9132 26.152L13.8632 26.0847L13.8139 26.0169L13.7652 25.9485L13.7171 25.8795L13.6697 25.81L13.623 25.74L13.577 25.6694L13.5317 25.5983L13.487 25.5267L13.4431 25.4546L13.3998 25.3819L13.3573 25.3088L13.3155 25.2351L13.2744 25.161L13.234 25.0864L13.1944 25.0113L13.1555 24.9357L13.1173 24.8597L13.0799 24.7833L13.0433 24.7063L13.0074 24.629L12.9723 24.5512L12.938 24.473L12.9044 24.3943L12.8716 24.3153L12.8396 24.2358L12.8084 24.156L12.778 24.0757L12.7485 23.9951L12.7197 23.9141L12.6917 23.8328L12.6645 23.7511L12.6382 23.669L12.6127 23.5866L12.588 23.5039L12.5641 23.4208L12.5411 23.3374L12.519 23.2537L12.4976 23.1697L12.4772 23.0854L12.4576 23.0009L12.4388 22.916L12.4209 22.8309L12.4039 22.7455L12.3877 22.6599L12.3724 22.574L12.358 22.4879L12.3445 22.4016L12.3318 22.315L12.32 22.2283L12.3092 22.1413L12.2992 22.0542L12.2901 21.9668L12.2819 21.8793L12.2746 21.7916L12.2682 21.7038L12.2627 21.6158L12.2581 21.5277L12.2544 21.4395L12.2516 21.3511L12.2498 21.2626L12.2489 21.1741L12.2488 21.0854L12.2497 20.9966L12.2516 20.9078L12.2543 20.8189L12.258 20.7299L12.2626 20.6409L12.2681 20.5519L12.2745 20.4628L12.2819 20.3737L12.2902 20.2846L12.2994 20.1955L12.3096 20.1064L12.3207 20.0173L12.3327 19.9283L12.3457 19.8393L12.3596 19.7503L12.3745 19.6614L12.3902 19.5725L12.4069 19.4837L12.4246 19.395L12.4432 19.3064L12.4627 19.2179L12.4831 19.1295L12.5045 19.0413L12.5268 18.9531L12.5501 18.8651L12.5743 18.7773L12.5994 18.6896L12.6254 18.602L12.6524 18.5147L12.6803 18.4275L12.7091 18.3405L12.7389 18.2538L12.7696 18.1672L12.8012 18.0809L12.8337 17.9948L12.8672 17.909L12.9016 17.8234L12.9369 17.738L12.9731 17.653L13.0102 17.5682L13.0483 17.4837L13.0872 17.3995L13.1271 17.3156L13.1678 17.2321L13.2095 17.1488L13.252 17.0659L13.2955 16.9834L13.3398 16.9012L13.3851 16.8194L13.4312 16.7379L13.4782 16.6568L13.5261 16.5762L13.5749 16.4959L13.6245 16.416L13.6751 16.3366L13.7265 16.2575L13.7787 16.1789L13.8318 16.1008L13.8858 16.0231L13.9406 15.9459L13.9963 15.8692L14.0528 15.7929L14.1101 15.7171L14.1683 15.6419L14.2273 15.5671L14.2872 15.4929L14.3479 15.4191L14.4093 15.346L14.4716 15.2733L14.5347 15.2012L14.5986 15.1297L14.6633 15.0587L14.7288 14.9884L14.7951 14.9186L14.8622 14.8494L14.93 14.7808L14.9986 14.7128L15.068 14.6454L15.1381 14.5787L15.209 14.5126L15.2806 14.4471L15.3529 14.3823L15.426 14.3181L15.4999 14.2547L15.5744 14.1918L15.6497 14.1297L15.7256 14.0683L15.8023 14.0075L15.8796 13.9475L15.9577 13.8882L16.0364 13.8296L16.1158 13.7717L16.1959 13.7146L16.2766 13.6582L16.358 13.6025L16.4401 13.5476L16.5227 13.4935L16.606 13.4402L16.69 13.3876L16.7745 13.3358L16.8597 13.2848L16.9454 13.2346L17.0318 13.1852L17.1187 13.1366L17.2062 13.0888L17.2943 13.0419L17.3829 12.9958L17.4721 12.9505L17.5618 12.9061L17.6521 12.8625L17.7429 12.8198L17.8342 12.7779L17.926 12.7369L18.0183 12.6968L18.1112 12.6575L18.2045 12.6191L18.2982 12.5817L18.3925 12.5451L18.4872 12.5094L18.5823 12.4746L18.6779 12.4408L18.774 12.4078L18.8704 12.3758L18.9673 12.3447L19.0645 12.3145L19.1622 12.2853L19.2602 12.257L19.3586 12.2297L19.4574 12.2033L19.5565 12.1778L19.656 12.1533L19.7558 12.1298L19.856 12.1073L19.9564 12.0857L20.0572 12.0651L20.1582 12.0455L20.2089 12.0361ZM21.4508 19.2964L20.2982 19.5718L20.2305 13.8623L20.1762 13.8745L20.0944 13.8938L20.0127 13.9139L19.9316 13.9347L19.8506 13.9563L19.7701 13.9787L19.6896 14.002L19.6099 14.0258L19.53 14.0506L19.4511 14.0759L19.372 14.1022L19.2934 14.1292L19.2152 14.1569L19.1373 14.1853L19.0601 14.2144L18.983 14.2444L18.9063 14.275L18.8301 14.3063L18.754 14.3385L18.6789 14.3711L18.6038 14.4047L18.5294 14.4388L18.4551 14.4738L18.3815 14.5093L18.3081 14.5456L18.2355 14.5825L18.1632 14.6201L18.0914 14.6584L18.0201 14.6973L17.9492 14.7369L17.8788 14.7772L17.8092 14.818L17.7395 14.8597L17.6707 14.9018L17.6025 14.9446L17.5347 14.988L17.4673 15.0321L17.4006 15.0768L17.3344 15.1221L17.2687 15.1679L17.2037 15.2143L17.139 15.2614L17.075 15.3091L17.0116 15.3573L16.9487 15.4061L16.8865 15.4553L16.8249 15.5052L16.7637 15.5557L16.7031 15.6068L16.6433 15.6582L16.584 15.7103L16.5253 15.7628L16.4672 15.8159L16.4097 15.8696L16.3529 15.9237L16.2967 15.9782L16.241 16.0334L16.1861 16.0889L16.1318 16.145L16.0782 16.2014L16.025 16.2586L15.9727 16.3159L15.921 16.3738L15.8699 16.4322L15.8196 16.4908L15.7698 16.5501L15.7209 16.6095L15.6724 16.6697L15.6248 16.73L15.5777 16.7909L15.5314 16.8522L15.4858 16.9137L15.4408 16.9756L15.3966 17.0379L15.353 17.1007L15.3101 17.1637L15.268 17.2272L15.2266 17.2908L15.1859 17.3548L15.1458 17.4193L15.1066 17.4839L15.0679 17.5491L15.0301 17.6142L14.9929 17.6799L14.9564 17.7458L14.9208 17.8119L14.8858 17.8783L14.8516 17.945L14.818 18.0121L14.7853 18.0791L14.7532 18.1467L14.7219 18.2143L14.6914 18.2822L14.6615 18.3503L14.6324 18.4187L14.6041 18.4871L14.5765 18.5559L14.5497 18.6248L14.5235 18.6939L14.4982 18.763L14.4736 18.8325L14.4497 18.9021L14.4266 18.9718L14.4042 19.0416L14.3826 19.1117L14.3617 19.1818L14.3417 19.2519L14.3223 19.3223L14.3036 19.3928L14.2858 19.4633L14.2687 19.5339L14.2523 19.6046L14.2367 19.6754L14.2219 19.7463L14.2078 19.8171L14.1944 19.888L14.1818 19.9591L14.17 20.03L14.1589 20.101L14.1485 20.1722L14.1389 20.2431L14.1301 20.3143L14.122 20.3852L14.1146 20.4563L14.108 20.5275L14.1021 20.5984L14.097 20.6694L14.0926 20.7404L14.0889 20.8112L14.086 20.882L14.0838 20.9527L14.0824 21.0235L14.0816 21.0941L14.0817 21.1646L14.0824 21.235L14.0839 21.3054L14.0861 21.3756L14.089 21.4457L14.0926 21.5157L14.097 21.5855L14.1021 21.6552L14.1079 21.7248L14.1144 21.7942L14.1216 21.8636L14.1295 21.9325L14.1381 22.0016L14.1474 22.0702L14.1575 22.1389L14.1682 22.2072L14.1796 22.2754L14.1917 22.3435L14.2045 22.4112L14.218 22.4788L14.2321 22.546L14.247 22.6132L14.2625 22.68L14.2787 22.7467L14.2955 22.8129L14.3131 22.8792L14.3312 22.9449L14.35 23.0106L14.3695 23.0758L14.3896 23.1409L14.4104 23.2056L14.4318 23.2699L14.4539 23.3342L14.4766 23.398L14.4999 23.4614L14.5238 23.5247L14.5484 23.5876L14.5736 23.6501L14.5994 23.7123L14.6257 23.7741L14.6528 23.8357L14.6804 23.8969L14.7086 23.9577L14.7374 24.0181L14.7667 24.0781L14.7968 24.138L14.8272 24.1972L14.8583 24.2561L14.89 24.3147L14.9223 24.3728L14.9551 24.4306L14.9884 24.488L15.0223 24.5448L15.0568 24.6014L15.0917 24.6575L15.1272 24.7131L15.1633 24.7684L15.1998 24.8232L15.2369 24.8777L15.2744 24.9314L15.3125 24.985L15.3511 25.038L15.3901 25.0905L15.4298 25.1427L15.4698 25.1943L15.5103 25.2454L15.5513 25.2961L15.5928 25.3464L15.6346 25.396L15.6771 25.4453L15.7199 25.4941L15.7631 25.5423L15.807 25.5901L15.851 25.6372L15.8956 25.6841L15.9406 25.7303L15.9859 25.776L16.0318 25.8212L16.078 25.8659L16.1246 25.9101L16.1716 25.9537L16.219 25.9968L16.2668 26.0394L16.3149 26.0814L16.3634 26.1229L16.4122 26.1639L16.4614 26.2043L16.511 26.2442L16.561 26.2835L16.6111 26.3222L16.6617 26.3604L16.7126 26.3981L16.7638 26.4352L16.8153 26.4717L16.8671 26.5077L16.9192 26.5431L16.9716 26.5779L17.0242 26.6121L17.0771 26.6458L17.1305 26.679L17.1839 26.7114L17.2376 26.7434L17.2917 26.7748L17.3458 26.8055L17.4002 26.8357L17.4551 26.8654L17.51 26.8944L17.5651 26.9228L17.6204 26.9506L17.6761 26.9779L17.7317 27.0045L17.7878 27.0306L17.8439 27.0561L17.9001 27.0809L17.9567 27.1052L18.0134 27.1289L18.0701 27.152L18.1271 27.1745L18.1842 27.1963L18.2416 27.2176L18.2988 27.2383L18.3565 27.2584L18.414 27.2778L18.4717 27.2967L18.5296 27.315L18.5876 27.3327L18.6456 27.3497L18.7037 27.3662L18.762 27.382L18.8203 27.3973L18.8786 27.4119L18.937 27.426L18.9954 27.4394L19.0539 27.4522L19.1125 27.4645L19.1711 27.4761L19.2297 27.4872L19.2883 27.4976L19.347 27.5075L19.4057 27.5167L19.4644 27.5254L19.5229 27.5334L19.5816 27.5408L19.6402 27.5477L19.6989 27.554L19.7575 27.5596L19.8161 27.5647L19.8746 27.5692L19.933 27.5731L19.9915 27.5764L20.0498 27.5791L20.108 27.5813L20.1664 27.5828L20.2244 27.5838L20.2824 27.5842L20.3404 27.584L20.3982 27.5833L20.4561 27.5819L20.5138 27.58L20.5712 27.5776L20.6286 27.5745L20.6861 27.5709L20.7431 27.5667L20.8002 27.562L20.857 27.5567L20.9138 27.5509L20.9704 27.5444L21.0267 27.5375L21.0831 27.53L21.1391 27.5219L21.1949 27.5133L21.2508 27.5042L21.3063 27.4945L21.3616 27.4843L21.4168 27.4735L21.4718 27.4622L21.5264 27.4504L21.5808 27.4381L21.6352 27.4252L21.6893 27.4118L21.7431 27.398L21.7967 27.3836L21.85 27.3687L21.9033 27.3532L21.9561 27.3373L22.0085 27.3209L22.0611 27.3039L22.1131 27.2865L22.1649 27.2687L22.2164 27.2503L22.2676 27.2314L22.3187 27.212L22.3694 27.1922L22.4197 27.1719L22.4698 27.1512L22.5196 27.1299L22.5692 27.1082L22.6182 27.0861L22.6672 27.0635L22.7157 27.0405L22.7638 27.017L22.8118 26.9931L22.8592 26.9688L22.9065 26.944L22.9534 26.9187L22.9999 26.8931L23.046 26.8671L23.0919 26.8406L23.1374 26.8137L23.1824 26.7864L23.2271 26.7587L23.2715 26.7306L23.3155 26.7022L23.3592 26.6733L23.4024 26.6441L23.4453 26.6144L23.4878 26.5844L23.5298 26.5541L23.5715 26.5233L23.6128 26.4922L23.6537 26.4607L23.6942 26.4289L23.7344 26.3967L23.774 26.3643L23.8133 26.3315L23.8521 26.2983L23.8905 26.2648L23.9286 26.231L23.9662 26.1968L24.0034 26.1624L24.04 26.1277L24.0764 26.0926L24.1123 26.0572L24.1478 26.0216L24.1828 25.9857L24.2173 25.9494L24.2514 25.913L24.2852 25.8761L24.3183 25.8392L24.3512 25.8018L24.3835 25.7642L24.4153 25.7265L24.4469 25.6883L24.4777 25.6501L24.5083 25.6115L24.5384 25.5728L24.5679 25.5338L24.5971 25.4945L24.6257 25.4552L24.6539 25.4154L24.6817 25.3755L24.7089 25.3356L24.7357 25.2952L24.7621 25.2548L24.7878 25.2142L24.8132 25.1734L24.8381 25.1324L24.8625 25.0912L24.8865 25.0499L24.9099 25.0084L24.9329 24.9668L24.9554 24.9249L24.9774 24.8831L24.9989 24.841L25.02 24.7988L25.0406 24.7565L25.0607 24.7139L25.0803 24.6714L25.0994 24.6287L25.118 24.586L25.1362 24.543L25.1538 24.5001L25.1711 24.4568L25.1877 24.4139L25.204 24.3703L25.2196 24.3274L25.2349 24.2838L25.2497 24.2402L25.2639 24.1968L25.2777 24.1532L25.291 24.1097L25.3039 24.0657L25.3161 24.0223L25.3281 23.9782L25.3394 23.9348L25.3503 23.8908L25.3607 23.8468L25.3706 23.8031L25.38 23.7595L25.389 23.7153L25.3975 23.6716L25.4055 23.6275L25.413 23.5839L25.4201 23.5401L25.4267 23.4962L25.4328 23.4523L25.4384 23.4085L25.4436 23.3649L25.4483 23.3214L25.4525 23.2775L25.4563 23.234L25.4596 23.1904L25.4624 23.1469L25.4648 23.1035L25.4667 23.0602L25.4681 23.0171L25.4691 22.9737L25.4697 22.9304L25.4698 22.8875L25.4694 22.8446L25.4686 22.8018L25.4673 22.7591L25.4656 22.7162L25.4634 22.6741L25.4608 22.6311L25.4578 22.5892L25.4543 22.5471L25.4504 22.5047L25.446 22.4628L25.4413 22.4213L25.436 22.3792L25.4304 22.338L25.4243 22.2965L25.4179 22.2556L25.4109 22.2143L25.4036 22.1733L25.3959 22.1327L25.3878 22.0922L25.3792 22.0516L25.3702 22.0115L25.3609 21.9714L25.3511 21.9316L25.341 21.8921L25.3303 21.8523L25.3195 21.8133L25.3081 21.7739L25.2964 21.7352L25.2843 21.6965L25.2718 21.6581L25.2589 21.6198L25.2456 21.5816L25.2321 21.544L25.2181 21.5065L25.2037 21.4689L25.189 21.4319L25.1739 21.3947L25.1586 21.3584L25.1427 21.3217L25.1267 21.2856L25.1102 21.2498L25.0934 21.214L25.0763 21.1786L25.0588 21.1434L25.041 21.1084L25.0229 21.0738L25.0044 21.0394L24.9857 21.0053L24.9666 20.9714L24.9471 20.9378L24.9275 20.9045L24.9075 20.8715L24.8871 20.8386L24.8665 20.8063L24.8456 20.7741L24.8244 20.7422L24.8029 20.7105L24.7812 20.6793L24.7591 20.6482L24.7368 20.6175L24.7142 20.5871L24.6913 20.557L24.6683 20.5272L24.6448 20.4976L24.6212 20.4685L24.5973 20.4396L24.5732 20.411L24.5488 20.3827L24.5243 20.3548L24.4994 20.3272L24.4743 20.2999L24.449 20.2728L24.4235 20.2462L24.3977 20.2199L24.3717 20.1938L24.3456 20.1682L24.3192 20.1429L24.2927 20.1179L24.2657 20.0931L24.2389 20.0688L24.2117 20.0447L24.1844 20.0211L24.1568 19.9977L24.1291 19.9748L24.1012 19.9521L24.0732 19.9298L24.045 19.9078L24.0166 19.8861L23.9881 19.8649L23.9594 19.8439L23.9305 19.8233L23.9016 19.8031L23.8725 19.7831L23.8433 19.7636L23.8139 19.7444L23.7843 19.7255L23.7548 19.707L23.7249 19.6888L23.6951 19.671L23.6652 19.6536L23.6351 19.6365L23.6048 19.6197L23.5746 19.6033L23.5443 19.5872L23.5138 19.5715L23.4834 19.5562L23.4526 19.5411L23.422 19.5265L23.3912 19.5123L23.3604 19.4983L23.3295 19.4847L23.2984 19.4714L23.2676 19.4586L23.2364 19.4461L23.2052 19.4339L23.1741 19.4221L23.1429 19.4106L23.1117 19.3995L23.0804 19.3887L23.0491 19.3782L23.0179 19.3682L22.9865 19.3584L22.9551 19.349L22.9239 19.34L22.8923 19.3313L22.8611 19.323L22.8297 19.315L22.7983 19.3073L22.7669 19.3L22.7356 19.293L22.7042 19.2864L22.6729 19.2801L22.6417 19.2741L22.6105 19.2685L22.5791 19.2632L22.5481 19.2583L22.5167 19.2537L22.4858 19.2494L22.4546 19.2454L22.4236 19.2418L22.3928 19.2385L22.3618 19.2356L22.331 19.2329L22.3002 19.2306L22.2695 19.2286L22.2388 19.2269L22.2082 19.2256L22.1779 19.2246L22.1474 19.2238L22.1171 19.2234L22.0868 19.2233L22.0567 19.2236L22.0266 19.2241L21.9967 19.2249L21.9668 19.2261L21.9372 19.2275L21.9074 19.2293L21.878 19.2313L21.8486 19.2336L21.8193 19.2363L21.7902 19.2392L21.761 19.2424L21.7322 19.2459L21.7034 19.2497L21.6748 19.2538L21.6462 19.2582L21.6179 19.2628L21.5896 19.2677L21.5617 19.2729L21.5336 19.2784L21.5059 19.2841L21.4782 19.2901L21.4508 19.2964Z" fill="white"/></g>
        <g id="logotype" transform="translate(45, 9)"><path fill="#ffffff" d="M20.07 0.50Q25.43 0.50 28.54 3.18Q31.66 5.85 31.66 10.82L31.66 10.82L24.27 10.82Q24.27 8.72 23.17 7.50Q22.07 6.27 20.04 6.27L20.04 6.27Q17.69 6.27 16.59 7.74Q15.49 9.21 15.49 11.84L15.49 11.84L15.49 14.08Q15.49 16.67 16.59 18.16Q17.69 19.64 19.97 19.64L19.97 19.64Q22.21 19.64 23.36 18.49Q24.52 17.34 24.52 15.23L24.52 15.23L31.66 15.23Q31.66 20.17 28.63 22.80Q25.60 25.42 20.07 25.42L20.07 25.42Q13.91 25.42 10.74 22.27Q7.58 19.12 7.58 12.96L7.58 12.96Q7.58 6.80 10.74 3.65Q13.91 0.50 20.07 0.50L20.07 0.50ZM45.17 6.06Q45.97 6.06 46.60 6.26Q47.23 6.45 47.23 6.48L47.23 6.48L47.23 12.33L44.99 12.33Q42.82 12.33 41.86 13.45Q40.90 14.57 40.90 16.77L40.90 16.77L40.90 25L33.93 25L33.93 6.52L39.64 6.52L40.09 9.32Q40.72 7.71 42.09 6.89Q43.45 6.06 45.17 6.06L45.17 6.06ZM68.34 25L62.63 25L62.18 22.20Q61.09 23.70 59.32 24.56Q57.56 25.42 55.60 25.42L55.60 25.42Q52.38 25.42 50.77 23.63Q49.16 21.85 49.16 18.49L49.16 18.49L49.16 6.52L56.12 6.52L56.12 17.65Q56.12 18.84 56.73 19.56Q57.35 20.27 58.47 20.27L58.47 20.27Q59.76 20.27 60.57 19.43Q61.37 18.59 61.37 17.37L61.37 17.37L61.37 6.52L68.34 6.52L68.34 25ZM85.31 15.37L92.24 25L84.12 25L80.62 19.19L80.48 19.19L76.95 25L69.21 25L76.32 15.20L69.91 6.52L78.10 6.52L81.04 11.42L81.18 11.42L84.12 6.52L91.82 6.52L85.31 15.37Z"/></g>
        
      </svg>
    